<svg version="1.1" id="Layer_1" xmlns="http://www.w3.org/2000/svg" x="0" y="0" viewBox="0 0 900 112" style="enable-background:new 0 0 900 112" xml:space="preserve"><style>.st1,.st2{fill:none;stroke:#fff;stroke-width:2.172;stroke-linecap:round;stroke-linejoin:round}.st2{stroke-width:2.591}</style><path d="M0 0h900v112H0V0z"/><circle cx="112" cy="56" r="30.8" style="fill:none;stroke:#fff;stroke-width:2.495"/><path class="st1" d="M96.6 50.8v-6.5c0-1.2 1-2.2 2.2-2.2s2.2 1 2.2 2.2v6.5m-4.4-2.2h4.3m-2.1 11v2.2m-4.3 0h8.7m-2.2 0s-2.2 6.5-6.5 6.5"/><path class="st1" d="M98.8 65.8c1 1.5 2.6 2.4 4.3 2.5"/><path class="st2" d="M116.4 60.9c-1.7 2.3-4.3 3.7-7.1 3.9h-2m24.7 0h-3.1c-6.5 0-10.4-9.1-10.4-9.1s-2.7-9.1-9.2-9.1h-2m14.5 4c.8-1.1 1.9-2 3.1-2.7 1.2-.7 3.8-1.1 5.1-1.2h2"/><path class="st2" d="m126.8 70 5.2-5.2-5.2-5.2m0-7.7 5.2-5.2-5.2-5.2"/><path d="M53.9 24c-.1 0-.6.1-1 .1-9.1.8-17.6 5.7-23 13.3-3 4.2-4.9 8.9-5.6 14-.3 1.7-.3 2.2-.3 4.6s0 2.9.3 4.7c1.7 12 10.3 22.1 21.9 25.9 2.1.7 4.3 1.1 6.8 1.4 1 .1 5.2.1 6.1 0 4.3-.5 7.9-1.5 11.5-3.4.6-.3.7-.4.6-.4-.1 0-2.4-3.2-5.2-7l-5.1-6.9-6.4-9.5c-3.5-5.2-6.4-9.5-6.5-9.5 0 0 0 4.2-.1 9.4 0 9 0 9.4-.1 9.6-.2.3-.3.4-.5.6-.2.1-.4.1-1.3.1h-1.1l-.3-.2c-.2-.1-.3-.3-.4-.5L44 70V45l.2-.2c.1-.1.3-.3.5-.4.3-.1.4-.1 1.4-.1 1.3 0 1.5 0 1.8.4.1.1 3.6 5.3 7.7 11.6s9.8 14.9 12.6 19.1l5.1 7.7.3-.2c2.3-1.5 4.7-3.6 6.6-5.8 4-4.6 6.7-10.3 7.5-16.4.3-1.8.3-2.3.3-4.7 0-2.4 0-2.9-.3-4.7-1.7-12-10.3-22.1-21.9-25.9-2-.7-4.2-1.1-6.7-1.4h-5.2zM67 43.4c.3.2.5.4.6.7.1.2.1 3.6.1 11.5v11.2l-2-3-2-3v-8.2c0-5.3 0-8.3.1-8.4.1-.3.3-.6.6-.8.3-.1.3-.1 1.3-.1.9-.1 1.1 0 1.3.1zm99.9 14c0-1.5.9-2.4 2.2-2.4 1.4 0 2.2.9 2.2 2.4V66h5.5v-9.7c0-3.3-2.1-5.7-5.3-5.7-2.2 0-4 1.2-4.7 3.1h-.2v-2.9h-5.2V66h5.5v-8.6zm19.9 8.9c4.2 0 7-2 7.5-5.2h-5c-.3.9-1.2 1.4-2.3 1.4-1.6 0-2.6-1.1-2.6-2.5v-.2h9.9v-1.3c0-4.9-3-7.8-7.6-7.8-4.7 0-7.8 3.1-7.8 7.9 0 4.7 3 7.7 7.9 7.7zm-2.5-9.7c0-1.3 1.1-2.2 2.5-2.2s2.4.9 2.4 2.2h-4.9zm16.8-5.9h-5.5l4.1 7.6-4.3 7.6h5.5l2.5-4.9 2.6 4.9h5.4l-4.3-7.6 4.1-7.6h-5.4l-2.3 4.7-2.4-4.7zm21.1 0h-2.6V47h-5.5v3.7h-1.9v4h1.9v6.9c0 3.2 1.9 4.8 5.7 4.6.9-.1 1.8-.2 2.7-.5l-.8-3.9c-.2 0-.7.2-1.1.2-.7 0-1-.3-1-1v-6.4h2.6v-3.9zm11.8 5.1h-9.5V60h9.5v-4.2zm3.3 10.2h5.5v-8.9c0-1.3.7-2.1 1.8-2.1s1.9.8 1.9 2.1V66h5.3v-8.9c0-1.3.7-2.1 1.8-2.1s1.9.8 1.9 2.1V66h5.5V55.7c0-3.1-2-5.2-4.9-5.2-2.3 0-4.1 1.2-4.6 3.1h-.2c-.3-1.9-2-3.1-4.2-3.1-2.1 0-3.7 1.2-4.4 3.1h-.2v-2.9h-5.2V66zm36.2-6.7c0 1.5-.9 2.4-2.2 2.4-1.4 0-2.2-.9-2.2-2.4v-8.6h-5.5v9.7c0 3.3 2.1 5.7 5.3 5.7 2.3 0 4-1.2 4.7-3.1h.2v3h5.2V50.7h-5.5v8.6zm13.8-13.7h-5.5V66h5.5V45.6zm11.9 5.1h-2.6V47h-5.5v3.7h-1.9v4h1.9v6.9c0 3.2 1.9 4.8 5.7 4.6.9-.1 1.8-.2 2.7-.5l-.8-3.9c-.2 0-.7.2-1.1.2-.7 0-1-.3-1-1v-6.4h2.6v-3.9zm2.2 15.3h5.5V50.7h-5.5V66zm2.8-16.9c1.5 0 2.7-1.1 2.7-2.5s-1.2-2.5-2.7-2.5c-1.5 0-2.7 1.1-2.7 2.5s1.2 2.5 2.7 2.5zm11-3.5h-5.5V66h5.5V45.6zM318 66h5.5V50.7H318V66zm2.8-16.9c1.5 0 2.7-1.1 2.7-2.5s-1.2-2.5-2.7-2.5c-1.5 0-2.7 1.1-2.7 2.5s1.2 2.5 2.7 2.5zm11 8.3c0-1.5.9-2.4 2.2-2.4 1.4 0 2.2.9 2.2 2.4V66h5.5v-9.7c0-3.3-2.1-5.7-5.3-5.7-2.2 0-4 1.2-4.7 3.1h-.2v-2.9h-5.2V66h5.5v-8.6zm20 14.6c4.8 0 8-2.2 8-6.1V50.7h-5.5v2.7h-.1c-.6-1.6-2-2.9-4.3-2.9-3 0-6 2.3-6 7.8 0 5.3 2.7 7.4 6 7.4 2.1 0 3.7-.9 4.3-2.4h.2V66c0 1.8-1 2.4-2.5 2.4-1.3 0-2.2-.4-2.3-1.4h-5.3c.2 2.9 2.9 5 7.5 5zm.2-10.1c-1.5 0-2.4-1.3-2.4-3.5 0-2.3.9-3.6 2.4-3.6s2.4 1.4 2.4 3.6-.9 3.5-2.4 3.5zm20.5-2.6c0 1.5-.9 2.4-2.2 2.4-1.4 0-2.2-.9-2.2-2.4v-8.6h-5.5v9.7c0 3.3 2.1 5.7 5.3 5.7 2.3 0 4-1.2 4.7-3.1h.2v3h5.2V50.7h-5.5v8.6zm12.5 6.9c2 0 3.5-.7 4.4-2.4h.1V66h5.1V55.5c0-2.8-2.7-5-7-5-4.6 0-6.8 2.4-7 5.2h5.1c.1-.9.8-1.4 1.9-1.4 1 0 1.6.4 1.6 1.2 0 .9-1 1.2-3.5 1.4-3.2.2-5.6 1.5-5.6 4.9 0 3 2 4.4 4.9 4.4zm1.8-3.4c-.9 0-1.6-.5-1.6-1.3s.6-1.4 1.8-1.6c.9-.1 1.6-.3 2.2-.6v1.3c0 1.4-1.1 2.2-2.4 2.2zm16-17.2h-5.5V66h5.5V45.6z" style="fill:#fff"/></svg>