<svg width="900" height="112" viewBox="0 0 900 112" fill="none" xmlns="http://www.w3.org/2000/svg">
<rect width="900" height="112" fill="black"/>
<circle cx="112" cy="56" r="30.7526" stroke="white" stroke-width="2.49474"/>
<path d="M96.5728 50.8192V44.3043C96.5728 43.7284 96.8015 43.176 97.2088 42.7688C97.6161 42.3615 98.1684 42.1327 98.7444 42.1327C99.3203 42.1327 99.8727 42.3615 100.28 42.7688C100.687 43.176 100.916 43.7284 100.916 44.3043V50.8192" stroke="white" stroke-width="2.17161" stroke-linecap="round" stroke-linejoin="round"/>
<path d="M96.5728 48.6476H100.916" stroke="white" stroke-width="2.17161" stroke-linecap="round" stroke-linejoin="round"/>
<path d="M98.8433 59.6043V61.7759" stroke="white" stroke-width="2.17161" stroke-linecap="round" stroke-linejoin="round"/>
<path d="M94.5 61.7759H103.186" stroke="white" stroke-width="2.17161" stroke-linecap="round" stroke-linejoin="round"/>
<path d="M101.015 61.7759C101.015 61.7759 98.8432 68.2908 94.5 68.2908" stroke="white" stroke-width="2.17161" stroke-linecap="round" stroke-linejoin="round"/>
<path d="M98.8418 65.7804C99.326 66.5027 99.9692 67.1045 100.722 67.5396C101.475 67.9748 102.317 68.2317 103.185 68.2907" stroke="white" stroke-width="2.17161" stroke-linecap="round" stroke-linejoin="round"/>
<path d="M116.389 60.93C115.557 62.0492 114.494 62.9761 113.272 63.6474C112.05 64.3187 110.697 64.7187 109.306 64.8201H107.344" stroke="white" stroke-width="2.59112" stroke-linecap="round" stroke-linejoin="round"/>
<path d="M131.997 64.8201H128.851C122.373 64.8201 118.486 55.7512 118.486 55.7512C118.486 55.7512 115.784 46.6823 109.306 46.6823H107.344" stroke="white" stroke-width="2.59112" stroke-linecap="round" stroke-linejoin="round"/>
<path d="M121.769 50.5655C122.6 49.4469 123.664 48.521 124.886 47.8508C126.108 47.1807 128.645 46.7821 130.035 46.6823H131.997" stroke="white" stroke-width="2.59112" stroke-linecap="round" stroke-linejoin="round"/>
<path d="M126.815 70.0024L131.997 64.8201L126.815 59.6379" stroke="white" stroke-width="2.59112" stroke-linecap="round" stroke-linejoin="round"/>
<path d="M126.815 51.8645L131.997 46.6823L126.815 41.5" stroke="white" stroke-width="2.59112" stroke-linecap="round" stroke-linejoin="round"/>
<path d="M53.9042 24.0172C53.7666 24.0297 53.3286 24.0735 52.9345 24.1048C43.8444 24.9242 35.3298 29.8283 29.937 37.3658C26.9341 41.5568 25.0135 46.3107 24.2878 51.3461C24.0313 53.1039 24 53.623 24 56.0063C24 58.3895 24.0313 58.9087 24.2878 60.6664C26.027 72.6826 34.5791 82.7785 46.1779 86.5191C48.2549 87.1884 50.4446 87.645 52.9345 87.9202C53.9042 88.0266 58.0958 88.0266 59.0655 87.9202C63.3634 87.4449 67.0045 86.3815 70.5955 84.5487C71.146 84.2672 71.2524 84.1922 71.1773 84.1296C71.1273 84.0921 68.7812 80.9457 65.966 77.1426L60.8485 70.2306L54.436 60.7414C50.9075 55.5246 48.0047 51.2586 47.9797 51.2586C47.9546 51.2523 47.9296 55.4683 47.9171 60.6163C47.8983 69.6301 47.8921 69.9929 47.7795 70.2055C47.6168 70.5121 47.4917 70.6372 47.2289 70.7748C47.0287 70.8749 46.8536 70.8936 45.9089 70.8936H44.8266L44.5388 70.7122C44.3511 70.5934 44.2135 70.437 44.1196 70.2556L43.9883 69.9741L44.0008 57.4324L44.0196 44.8845L44.2135 44.6406C44.3136 44.5092 44.5263 44.3403 44.6764 44.259C44.9329 44.1339 45.033 44.1214 46.1153 44.1214C47.3916 44.1214 47.6043 44.1714 47.9359 44.5342C48.0297 44.6343 51.5019 49.8637 55.6559 56.1626C59.81 62.4616 65.4905 71.0625 68.2807 75.2848L73.3482 82.9599L73.6047 82.791C75.8757 81.3148 78.278 79.213 80.1799 77.0237C84.2276 72.3761 86.8364 66.7089 87.7122 60.6664C87.9687 58.9087 88 58.3895 88 56.0063C88 53.623 87.9687 53.1039 87.7122 51.3461C85.973 39.3299 77.4209 29.2341 65.8221 25.4934C63.7763 24.8304 61.5992 24.3738 59.1593 24.0985C58.5587 24.036 54.4235 23.9672 53.9042 24.0172ZM67.0045 43.3708C67.3048 43.5209 67.5488 43.8086 67.6364 44.1089C67.6864 44.2715 67.6989 47.7494 67.6864 55.5872L67.6676 66.834L65.6845 63.794L63.695 60.754V52.5784C63.695 47.2928 63.72 44.3216 63.7576 44.1777C63.8577 43.8274 64.0766 43.5522 64.3769 43.3895C64.6334 43.2582 64.7273 43.2457 65.7095 43.2457C66.6354 43.2457 66.798 43.2582 67.0045 43.3708Z" fill="white"/>
<path d="M166.881 57.4091C166.891 55.8977 167.746 54.983 169.108 54.983C170.49 54.983 171.305 55.8977 171.295 57.4091V66H176.784V56.2557C176.794 52.9347 174.696 50.5284 171.455 50.5284C169.207 50.5284 167.428 51.7017 166.761 53.6307H166.602V50.7273H161.392V66H166.881V57.4091ZM186.812 66.2784C191.048 66.2784 193.772 64.25 194.289 61.0682H189.278C188.96 61.9332 188.055 62.4205 186.931 62.4205C185.3 62.4205 184.346 61.3466 184.346 59.875V59.6364H194.289V58.3636C194.289 53.5014 191.306 50.5284 186.692 50.5284C181.96 50.5284 178.937 53.6705 178.937 58.4034C178.937 63.3452 181.92 66.2784 186.812 66.2784ZM184.346 56.6136C184.376 55.2912 185.469 54.3864 186.812 54.3864C188.174 54.3864 189.208 55.3011 189.238 56.6136H184.346ZM201.098 50.7273H195.609L199.666 58.3636L195.331 66H200.819L203.325 61.1477L205.91 66H211.319L207.024 58.3636L211.12 50.7273H205.672L203.325 55.4602L201.098 50.7273ZM222.18 50.7273H219.555V47.0682H214.066V50.7273H212.117V54.7045H214.066V61.6051C214.026 64.8068 216.005 66.4276 219.793 66.2188C221.036 66.1491 221.961 65.8906 222.458 65.7415L221.663 61.8835C221.454 61.9332 220.917 62.0426 220.589 62.0426C219.873 62.0426 219.555 61.7244 219.555 61.0881V54.7045H222.18V50.7273ZM234.032 55.8182H224.487V59.9545H234.032V55.8182ZM237.298 66H242.787V57.0909C242.787 55.7585 243.483 54.9432 244.616 54.9432C245.75 54.9432 246.486 55.7585 246.486 57.0909V66H251.736V57.0909C251.736 55.7585 252.432 54.9432 253.565 54.9432C254.699 54.9432 255.435 55.7585 255.435 57.0909V66H260.923V55.6989C260.923 52.5668 258.915 50.5284 255.991 50.5284C253.724 50.5284 251.895 51.7614 251.378 53.6307H251.219C250.901 51.7614 249.19 50.5284 247.043 50.5284C244.925 50.5284 243.304 51.7216 242.668 53.6307H242.509V50.7273H237.298V66ZM273.534 59.3182C273.544 60.8295 272.669 61.7443 271.306 61.7443C269.924 61.7443 269.129 60.8295 269.119 59.3182V50.7273H263.63V60.4716C263.64 63.8125 265.748 66.1989 268.96 66.1989C271.237 66.1989 272.987 65.0455 273.653 63.0966H273.812V66H279.022V50.7273H273.534V59.3182ZM287.303 45.6364H281.814V66H287.303V45.6364ZM299.207 50.7273H296.582V47.0682H291.093V50.7273H289.145V54.7045H291.093V61.6051C291.054 64.8068 293.032 66.4276 296.821 66.2188C298.064 66.1491 298.988 65.8906 299.485 65.7415L298.69 61.8835C298.481 61.9332 297.944 62.0426 297.616 62.0426C296.9 62.0426 296.582 61.7244 296.582 61.0881V54.7045H299.207V50.7273ZM301.447 66H306.935V50.7273H301.447V66ZM304.191 49.1364C305.683 49.1364 306.896 48.0128 306.896 46.6307C306.896 45.2486 305.683 44.125 304.191 44.125C302.7 44.125 301.487 45.2486 301.487 46.6307C301.487 48.0128 302.7 49.1364 304.191 49.1364ZM315.221 45.6364H309.732V66H315.221V45.6364ZM318.017 66H323.506V50.7273H318.017V66ZM320.761 49.1364C322.253 49.1364 323.466 48.0128 323.466 46.6307C323.466 45.2486 322.253 44.125 320.761 44.125C319.27 44.125 318.057 45.2486 318.057 46.6307C318.057 48.0128 319.27 49.1364 320.761 49.1364ZM331.791 57.4091C331.801 55.8977 332.656 54.983 334.018 54.983C335.4 54.983 336.216 55.8977 336.206 57.4091V66H341.694V56.2557C341.704 52.9347 339.606 50.5284 336.365 50.5284C334.118 50.5284 332.338 51.7017 331.672 53.6307H331.512V50.7273H326.302V66H331.791V57.4091ZM351.762 72.0455C356.594 72.0455 359.796 69.8381 359.796 65.9602V50.7273H354.307V53.392H354.188C353.591 51.8409 352.159 50.5284 349.892 50.5284C346.87 50.5284 343.926 52.8352 343.926 58.3636C343.926 63.6534 346.671 65.8011 349.932 65.8011C352 65.8011 353.631 64.9261 354.228 63.375H354.387V65.9602C354.387 67.7599 353.343 68.3466 351.921 68.3466C350.658 68.3466 349.733 67.9688 349.574 66.9943H344.284C344.493 69.9375 347.168 72.0455 351.762 72.0455ZM351.961 61.9034C350.449 61.9034 349.574 60.6307 349.574 58.3636C349.574 56.0966 350.449 54.7443 351.961 54.7443C353.472 54.7443 354.387 56.0966 354.387 58.3636C354.387 60.5909 353.472 61.9034 351.961 61.9034ZM372.491 59.3182C372.501 60.8295 371.626 61.7443 370.263 61.7443C368.881 61.7443 368.086 60.8295 368.076 59.3182V50.7273H362.587V60.4716C362.597 63.8125 364.705 66.1989 367.917 66.1989C370.194 66.1989 371.944 65.0455 372.61 63.0966H372.769V66H377.979V50.7273H372.491V59.3182ZM385.027 66.2386C387.015 66.2386 388.517 65.5625 389.441 63.8523H389.561V66H394.691V55.5398C394.691 52.7159 392.017 50.5284 387.652 50.5284C383.088 50.5284 380.841 52.9148 380.652 55.6989H385.703C385.832 54.7543 386.528 54.3068 387.572 54.3068C388.527 54.3068 389.203 54.7443 389.203 55.5398V55.5795C389.203 56.4645 388.228 56.7429 385.663 56.9318C382.511 57.1605 380.055 58.4332 380.055 61.7841C380.055 64.8267 382.103 66.2386 385.027 66.2386ZM386.816 62.7784C385.882 62.7784 385.225 62.321 385.225 61.4659C385.225 60.6804 385.782 60.0739 387.055 59.875C387.93 59.7358 388.666 59.5568 389.243 59.3182V60.5909C389.243 61.983 388.059 62.7784 386.816 62.7784ZM402.803 45.6364H397.314V66H402.803V45.6364Z" fill="white"/>
</svg>